<svg xmlns="http://www.w3.org/2000/svg" xmlns:xlink="http://www.w3.org/1999/xlink" width="1123" zoomAndPan="magnify" viewBox="0 0 842.25 1190.249948" height="1587" preserveAspectRatio="xMidYMid meet" version="1.0"><defs><g/><clipPath id="93b37d0830"><path d="M 8 497 L 841.5 497 L 841.5 692 L 8 692 Z M 8 497 " clip-rule="nonzero"/></clipPath><clipPath id="7e639f2065"><path d="M 0.871094 0.230469 L 833.5 0.230469 L 833.5 194.460938 L 0.871094 194.460938 Z M 0.871094 0.230469 " clip-rule="nonzero"/></clipPath><clipPath id="ed77325e3d"><rect x="0" width="834" y="0" height="195"/></clipPath><clipPath id="5064f3a608"><rect x="0" width="834" y="0" height="195"/></clipPath></defs><g clip-path="url(#93b37d0830)"><g transform="matrix(1, 0, 0, 1, 8, 497)"><g clip-path="url(#5064f3a608)"><g clip-path="url(#7e639f2065)"><g transform="matrix(1, 0, 0, 1, 0, 0.000000000000113687)"><g clip-path="url(#ed77325e3d)"><g fill="#89d957" fill-opacity="1"><g transform="translate(0.94422, 155.516752)"><g><path d="M 61.859375 -127 L 92.84375 -127 C 93.445312 -126.457031 99.835938 -115.828125 112.015625 -95.109375 C 136.597656 -53.378906 149.40625 -31.578125 150.4375 -29.703125 L 150.4375 -29.53125 L 114.640625 -29.53125 C 113.796875 -30.375 102.742188 -48.960938 81.484375 -85.296875 C 78.878906 -89.660156 77.515625 -91.84375 77.390625 -91.84375 C 53.472656 -51.207031 41.179688 -30.4375 40.515625 -29.53125 L 4.546875 -29.53125 L 4.546875 -29.984375 C 41.367188 -92.535156 60.472656 -124.875 61.859375 -127 Z M 61.859375 -127 "/></g></g></g><g fill="#89d957" fill-opacity="1"><g transform="translate(173.772654, 155.516752)"><g><path d="M 5 -127 L 137.984375 -127 C 138.285156 -126.9375 138.4375 -126.785156 138.4375 -126.546875 L 138.4375 -104.28125 C 138.4375 -103.976562 138.285156 -103.828125 137.984375 -103.828125 L 5 -103.828125 C 4.695312 -103.828125 4.546875 -103.976562 4.546875 -104.28125 L 4.546875 -126.546875 C 4.609375 -126.847656 4.757812 -127 5 -127 Z M 5 -88.84375 L 137.984375 -88.84375 C 138.285156 -88.78125 138.4375 -88.628906 138.4375 -88.390625 L 138.4375 -68.125 C 138.4375 -67.820312 138.285156 -67.671875 137.984375 -67.671875 L 5 -67.671875 C 4.695312 -67.671875 4.546875 -67.820312 4.546875 -68.125 L 4.546875 -88.390625 C 4.609375 -88.691406 4.757812 -88.84375 5 -88.84375 Z M 5 -52.59375 L 137.984375 -52.59375 C 138.285156 -52.59375 138.4375 -52.472656 138.4375 -52.234375 L 138.4375 -29.984375 C 138.4375 -29.679688 138.285156 -29.53125 137.984375 -29.53125 L 5 -29.53125 C 4.695312 -29.53125 4.546875 -29.679688 4.546875 -29.984375 L 4.546875 -52.234375 C 4.609375 -52.472656 4.757812 -52.59375 5 -52.59375 Z M 5 -52.59375 "/></g></g></g><g fill="#89d957" fill-opacity="1"><g transform="translate(334.610575, 155.516752)"><g><path d="M 5.171875 -127 L 49.0625 -127 C 49.84375 -127 51.929688 -125.09375 55.328125 -121.28125 C 56.359375 -120.488281 63.773438 -113.460938 77.578125 -100.203125 L 77.765625 -100.203125 C 94.597656 -116.367188 103.984375 -125.300781 105.921875 -127 L 150.15625 -127 C 150.46875 -126.9375 150.625 -126.785156 150.625 -126.546875 C 148.5 -124.722656 131.78125 -108.734375 100.46875 -78.578125 L 100.46875 -78.390625 C 101.375 -77.367188 118.148438 -61.140625 150.796875 -29.703125 L 150.4375 -29.53125 L 106.109375 -29.53125 C 103.921875 -31.46875 94.472656 -40.488281 77.765625 -56.59375 L 77.578125 -56.59375 C 60.921875 -40.488281 51.472656 -31.46875 49.234375 -29.53125 L 5 -29.53125 C 4.695312 -29.53125 4.546875 -29.679688 4.546875 -29.984375 C 6.960938 -32.097656 23.738281 -48.144531 54.875 -78.125 L 54.875 -78.390625 C 53.601562 -79.785156 36.882812 -95.894531 4.71875 -126.71875 Z M 5.171875 -127 "/></g></g></g><g fill="#89d957" fill-opacity="1"><g transform="translate(507.802369, 155.516752)"><g><path d="M 5 -127 L 35.25 -127 C 35.550781 -126.9375 35.703125 -126.785156 35.703125 -126.546875 L 35.703125 -70.046875 C 35.703125 -61.503906 39.425781 -55.929688 46.875 -53.328125 C 48.570312 -52.835938 50.144531 -52.59375 51.59375 -52.59375 L 107.1875 -52.59375 L 107.1875 -126.546875 C 107.25 -126.847656 107.40625 -127 107.65625 -127 L 137.984375 -127 C 138.285156 -126.9375 138.4375 -126.785156 138.4375 -126.546875 L 138.4375 -29.984375 C 138.4375 -29.679688 138.285156 -29.53125 137.984375 -29.53125 L 34.15625 -29.53125 C 25.3125 -29.53125 17.410156 -33.222656 10.453125 -40.609375 C 6.515625 -45.390625 4.546875 -50.476562 4.546875 -55.875 L 4.546875 -126.546875 C 4.609375 -126.847656 4.757812 -127 5 -127 Z M 5 -127 "/></g></g></g><g fill="#89d957" fill-opacity="1"><g transform="translate(668.640309, 155.516752)"><g><path d="M 5 -127 L 36.15625 -127 L 77.765625 -78.765625 C 105.253906 -110.921875 119.0625 -127 119.1875 -127 L 150.4375 -127 C 150.675781 -126.9375 150.796875 -126.785156 150.796875 -126.546875 L 150.796875 -29.984375 C 150.796875 -29.679688 150.675781 -29.53125 150.4375 -29.53125 L 120.09375 -29.53125 C 119.789062 -29.53125 119.640625 -29.679688 119.640625 -29.984375 L 119.640625 -87.484375 L 78.03125 -39.15625 L 77.578125 -39.15625 C 77.335938 -39.21875 63.378906 -55.328125 35.703125 -87.484375 L 35.703125 -29.984375 C 35.703125 -29.679688 35.550781 -29.53125 35.25 -29.53125 L 5 -29.53125 C 4.695312 -29.53125 4.546875 -29.679688 4.546875 -29.984375 L 4.546875 -126.546875 C 4.609375 -126.847656 4.757812 -127 5 -127 Z M 5 -127 "/></g></g></g></g></g></g></g></g></g></svg>